<svg width="247" height="124" viewBox="0 0 247 124" fill="none" xmlns="http://www.w3.org/2000/svg">
<path d="M129.262 5.77502C126.981 4.37101 126.63 0.51001 129.262 0.51001H182.965C204.552 0.51001 230.175 9.10951 230.175 34.206C230.175 54.3885 204.201 68.0775 191.389 68.0775H185.773C206.482 68.0775 215.608 74.7465 225.436 92.9985C233.86 108.794 237.546 115.638 244.39 117.569C248.076 118.622 247.549 123.36 244.039 123.36H203.674C201.042 123.36 201.042 119.675 203.499 118.095C207.36 115.638 201.744 102.476 199.287 97.2105C192.267 82.644 188.23 69.657 171.733 69.657H166.117C166.293 91.2435 166.995 113.708 173.839 118.095C176.472 119.675 176.472 123.36 173.839 123.36H129.262C126.63 123.36 126.981 119.499 129.262 118.095C136.633 113.708 136.282 85.6275 136.282 61.935C136.282 38.2425 137.335 10.5135 129.262 5.77502ZM182.965 5.77502C162.958 5.77502 166.117 38.2425 166.117 61.935C166.117 62.8125 166.117 63.5145 166.117 64.392C190.512 63.8655 200.34 55.0905 200.34 35.259C200.34 17.709 194.022 5.77502 182.965 5.77502Z" fill="#D4AF37"/>
<path d="M2.77918 5.77502C0.497676 4.37101 0.146676 0.51001 2.77918 0.51001H56.4822C78.0687 0.51001 103.692 9.10951 103.692 34.206C103.692 54.3885 77.7177 68.0775 64.9062 68.0775H59.2902C79.9992 68.0775 89.1252 74.7465 98.9532 92.9985C107.377 108.794 111.063 115.638 117.907 117.569C121.593 118.622 121.066 123.36 117.556 123.36H77.1912C74.5587 123.36 74.5587 119.675 77.0157 118.095C80.8767 115.638 75.2607 102.476 72.8037 97.2105C65.7837 82.644 61.7472 69.657 45.2502 69.657H39.6342C39.8097 91.2435 40.5117 113.708 47.3562 118.095C49.9887 119.675 49.9887 123.36 47.3562 123.36H2.77918C0.146676 123.36 0.497676 119.499 2.77918 118.095C10.1502 113.708 9.7992 85.6275 9.7992 61.935C9.7992 38.2425 10.8522 10.5135 2.77918 5.77502ZM56.4822 5.77502C36.4752 5.77502 39.6342 38.2425 39.6342 61.935C39.6342 62.8125 39.6342 63.5145 39.6342 64.392C64.0287 63.8655 73.8567 55.0905 73.8567 35.259C73.8567 17.709 67.5387 5.77502 56.4822 5.77502Z" fill="#D4AF37"/>
</svg>
